<svg xmlns="http://www.w3.org/2000/svg" viewBox="0 0 512 512" role="img" aria-labelledby="title">
  <title id="title">Moniq</title>
  <path d="M100,20 C200,16 312,24 412,20 C462,20 492,50 492,100 C496,200 488,312 492,412 C492,462 462,492 412,492 C312,488 200,496 100,492 C50,492 20,462 20,412 C16,312 24,200 20,100 C20,50 50,20 100,20 Z" fill="#cc785c" />
  <path d="M152 200 C220 194 292 194 360 200 C364 212 362 224 360 236 C292 240 220 240 152 236 C148 224 150 212 152 200 Z" fill="#fafaf7" stroke="#191919" stroke-width="12" stroke-linejoin="round" />
  <path d="M190 236 C192 310 216 360 256 380 C296 360 320 310 322 236" fill="none" stroke="#191919" stroke-width="20" stroke-linecap="round" />
  <circle cx="256" cy="236" r="22" fill="#191919" />
</svg>
